# xmcd
#
# Track frame offsets:
#	182
#	17360
#	37395
#	54447
#	70790
#	85292
#	103072
#	114680
#	138572
#	154065
#	165417
#	183165
#
# Disc length: 2959 seconds
#
# Revision: 2
# Processed by: cddbd v1.4PL0 Copyright (c) Steve Scherf et al.
# Submitted via: audiograbber 1.81.03
#
DISCID=9b0b8d0c
DTITLE=Paul Lamb and The King Snakes - Shifting Into Gear
DYEAR=1992
DGENRE=Blues
TTITLE0=Come On Everybody
TTITLE1=Hey Woman
TTITLE2=Evening Sun
TTITLE3=Didn't Do Me No Good
TTITLE4=Give Up Giving Up
TTITLE5=Feel So Good
TTITLE6=Shifting Into Gear (Inst.)
TTITLE7=Must Be More To Life Than This
TTITLE8=One More Time
TTITLE9=Snakeskin Jump (Inst.)
TTITLE10=Need Somebody To Love
TTITLE11=Once Too Often
EXTD=
EXTT0=
EXTT1=
EXTT2=
EXTT3=
EXTT4=
EXTT5=
EXTT6=
EXTT7=
EXTT8=
EXTT9=
EXTT10=
EXTT11=
PLAYORDER=
